<svg width="29" height="28" viewBox="0 0 29 28" fill="none" xmlns="http://www.w3.org/2000/svg">
<g clip-path="url(#clip0_21_1107)">
<g clip-path="url(#clip1_21_1107)">
<g clip-path="url(#clip2_21_1107)">
<path d="M19.96 4.89995H8.75998C6.05186 4.89995 3.85999 7.09183 3.85999 9.79995V11.2568C3.63249 11.2175 3.40061 11.2 3.15999 11.2V9.79995C3.15999 6.70683 5.66686 4.19995 8.75998 4.19995H19.96C23.0531 4.19995 25.56 6.70683 25.56 9.79995V11.2C25.3194 11.2 25.0875 11.2218 24.86 11.2568V9.79995C24.86 7.09183 22.6681 4.89995 19.96 4.89995ZM5.25999 15.4C5.25999 14.2406 4.31936 13.3 3.15999 13.3C2.00061 13.3 1.05999 14.2406 1.05999 15.4V21.7C1.05999 22.4743 1.68561 23.1 2.45999 23.1H3.85999C4.63436 23.1 5.25999 22.4743 5.25999 21.7V15.4ZM0.359985 15.4C0.359985 13.8556 1.61561 12.6 3.15999 12.6C4.70436 12.6 5.95999 13.8556 5.95999 15.4H22.76C22.76 13.8556 24.0156 12.6 25.56 12.6C27.1044 12.6 28.36 13.8556 28.36 15.4V21.7C28.36 22.8593 27.4194 23.8 26.26 23.8H24.86C23.7006 23.8 22.76 22.8593 22.76 21.7H5.95999C5.95999 22.8593 5.01936 23.8 3.85999 23.8H2.45999C1.30061 23.8 0.359985 22.8593 0.359985 21.7V15.4ZM5.95999 21H22.76V16.1H5.95999V21ZM27.66 15.4C27.66 14.2406 26.7194 13.3 25.56 13.3C24.4006 13.3 23.46 14.2406 23.46 15.4V21.7C23.46 22.4743 24.0856 23.1 24.86 23.1H26.26C27.0344 23.1 27.66 22.4743 27.66 21.7V15.4Z" fill="black"/>
</g>
</g>
</g>
<defs>
<clipPath id="clip0_21_1107">
<rect width="28" height="28" fill="white" transform="translate(0.359985)"/>
</clipPath>
<clipPath id="clip1_21_1107">
<rect width="28" height="28" fill="white" transform="translate(0.359985)"/>
</clipPath>
<clipPath id="clip2_21_1107">
<rect width="28" height="22.4" fill="white" transform="translate(0.359985 2.80005)"/>
</clipPath>
</defs>
</svg>
