<svg width="29" height="28" viewBox="0 0 29 28" fill="none" xmlns="http://www.w3.org/2000/svg">
<g clip-path="url(#clip0_21_1095)">
<g clip-path="url(#clip1_21_1095)">
<g clip-path="url(#clip2_21_1095)">
<path d="M3.34497 4.8125C3.34497 3.60391 4.32388 2.625 5.53247 2.625H23.9075C25.1161 2.625 26.095 3.60391 26.095 4.8125V7.91875C25.5372 7.35 24.7661 7 23.9075 7H17.345C16.2293 7 15.2559 7.59609 14.72 8.48203C14.184 7.59063 13.2106 7 12.095 7H5.53247C4.67388 7 3.90278 7.35 3.34497 7.91875V4.8125ZM3.34497 10.0625C3.34497 8.85391 4.32388 7.875 5.53247 7.875H12.095C13.3036 7.875 14.2825 8.85391 14.2825 10.0625V12.25H4.65747C4.1981 12.25 3.75513 12.3266 3.34497 12.4742V10.0625ZM2.46997 12.9117C1.4145 13.6172 0.719971 14.8203 0.719971 16.1875V22.3125V25.8125C0.719971 26.0531 0.916846 26.25 1.15747 26.25C1.3981 26.25 1.59497 26.0531 1.59497 25.8125V22.75H27.845V25.8125C27.845 26.0531 28.0418 26.25 28.2825 26.25C28.5231 26.25 28.72 26.0531 28.72 25.8125V22.3125V16.1875C28.72 14.8203 28.0254 13.6172 26.97 12.9117V10.0625V4.8125C26.97 3.12266 25.5973 1.75 23.9075 1.75H5.53247C3.84263 1.75 2.46997 3.12266 2.46997 4.8125V10.0625V12.9117ZM15.1575 10.0625C15.1575 8.85391 16.1364 7.875 17.345 7.875H23.9075C25.1161 7.875 26.095 8.85391 26.095 10.0625V12.4742C25.6848 12.3266 25.2418 12.25 24.7825 12.25H15.1575V10.0625ZM15.1575 13.125H24.7825C26.4723 13.125 27.845 14.4977 27.845 16.1875V21.875H1.59497V16.1875C1.59497 14.4977 2.96763 13.125 4.65747 13.125H14.2825H15.1575Z" fill="black"/>
</g>
</g>
</g>
<defs>
<clipPath id="clip0_21_1095">
<rect width="28" height="28" fill="white" transform="translate(0.719971)"/>
</clipPath>
<clipPath id="clip1_21_1095">
<rect width="28" height="28" fill="white" transform="translate(0.719971)"/>
</clipPath>
<clipPath id="clip2_21_1095">
<rect width="28" height="28" fill="white" transform="translate(0.719971)"/>
</clipPath>
</defs>
</svg>
