<svg width="29" height="28" viewBox="0 0 29 28" fill="none" xmlns="http://www.w3.org/2000/svg">
<g clip-path="url(#clip0_21_1089)">
<g clip-path="url(#clip1_21_1089)">
<g clip-path="url(#clip2_21_1089)">
<path d="M21.7623 4.375H27.16C27.5155 4.375 27.8327 4.58828 27.9694 4.91641C28.1061 5.24453 28.0295 5.62188 27.778 5.86797L17.278 16.368C17.0264 16.6195 16.6491 16.6906 16.3264 16.5594C16.0038 16.4281 15.785 16.1055 15.785 15.75V10.3523C15.785 10.1227 15.692 9.89844 15.528 9.73438L13.4444 7.65078C12.7006 6.90703 12.285 5.89531 12.285 4.84531C12.285 2.65234 14.0623 0.875 16.2553 0.875C17.3053 0.875 18.317 1.29062 19.0608 2.03984L21.1444 4.12344C21.3084 4.2875 21.5327 4.38047 21.7623 4.38047V4.375ZM21.7623 3.5L19.6788 1.41641C18.7709 0.508594 17.5405 0 16.2553 0C13.5811 0 11.41 2.17109 11.41 4.84531C11.41 6.13047 11.9186 7.36094 12.8264 8.26875L12.9248 8.36719L7.59829 13.6937C7.48891 13.8031 7.44516 13.9617 7.48344 14.1148L10.8413 27.1305H1.3475C1.10688 27.1305 0.910004 27.3273 0.910004 27.568C0.910004 27.8086 1.10688 28.0055 1.3475 28.0055H11.41H21.4725C21.7131 28.0055 21.91 27.8086 21.91 27.568C21.91 27.3273 21.7131 27.1305 21.4725 27.1305H11.7491L8.39672 14.1312L13.5428 8.98516L14.91 10.3523V15.75C14.91 16.4555 15.3366 17.0953 15.9928 17.3687C16.6491 17.6422 17.3983 17.4891 17.9014 16.9914L28.4014 6.49141C28.9045 5.98828 29.0522 5.23906 28.7788 4.58281C28.5053 3.92656 27.8709 3.5 27.16 3.5H21.7623ZM22.0194 15.3398C22.5116 15.6023 23.0694 15.75 23.66 15.75C25.5905 15.75 27.16 14.1805 27.16 12.25C27.16 11.6539 27.0123 11.0961 26.7498 10.6094L26.0936 11.2656C26.2139 11.5719 26.285 11.9 26.285 12.25C26.285 13.6992 25.1092 14.875 23.66 14.875C23.31 14.875 22.9819 14.8094 22.6756 14.6836L22.0194 15.3398Z" fill="black"/>
</g>
</g>
</g>
<defs>
<clipPath id="clip0_21_1089">
<rect width="28" height="28" fill="white" transform="translate(0.910004)"/>
</clipPath>
<clipPath id="clip1_21_1089">
<rect width="28" height="28" fill="white" transform="translate(0.910004)"/>
</clipPath>
<clipPath id="clip2_21_1089">
<rect width="28" height="28" fill="white" transform="translate(0.910004)"/>
</clipPath>
</defs>
</svg>
