<svg width="29" height="28" viewBox="0 0 29 28" fill="none" xmlns="http://www.w3.org/2000/svg">
<g clip-path="url(#clip0_21_1125)">
<g clip-path="url(#clip1_21_1125)">
<g clip-path="url(#clip2_21_1125)">
<path d="M9.6063 6.3263C10.0832 4.2613 11.9207 2.80005 14.0425 2.80005H23.65C26.3582 2.80005 28.55 4.99192 28.55 7.70005C28.55 9.66005 27.3994 11.3532 25.7369 12.1363C26.6294 13.4707 27.15 15.0719 27.15 16.8V22.4C27.15 23.9444 25.8944 25.2 24.35 25.2H21.0557C21.2963 24.9857 21.5194 24.7538 21.725 24.5H24.35C25.5094 24.5 26.45 23.5594 26.45 22.4V16.8C26.45 12.5475 23.0025 9.10005 18.75 9.10005C17.5907 9.10005 16.65 10.0407 16.65 11.2V15.4438C16.4138 15.4744 16.1775 15.5182 15.95 15.575V11.2C15.95 9.65567 17.2057 8.40005 18.75 8.40005C21.4057 8.40005 23.7725 9.6338 25.3125 11.5588C26.8044 10.9157 27.85 9.42817 27.85 7.70005C27.85 5.3813 25.9688 3.50005 23.65 3.50005H14.0425C12.2488 3.50005 10.6957 4.73817 10.2932 6.4838L8.88005 12.6H8.15817L9.6063 6.3263ZM7.8388 14H8.5563L6.94192 21H8.25005C9.40942 21 10.35 21.9407 10.35 23.1C10.35 24.2594 9.40942 25.2 8.25005 25.2H1.49942C0.974424 25.2 0.550049 24.7757 0.550049 24.2507C0.550049 23.9575 0.620049 23.6644 0.751299 23.4019L0.834424 23.2313C1.51692 21.8619 2.91692 21 4.4438 21H6.22005L7.83442 14H7.8388ZM6.5088 21.7H6.49567H4.4438C3.17942 21.7 2.02442 22.4132 1.46005 23.5463L1.37692 23.7125C1.2938 23.8788 1.25005 24.0625 1.25005 24.2507C1.25005 24.3907 1.3638 24.5 1.49942 24.5H8.25005C9.02442 24.5 9.65005 23.8744 9.65005 23.1C9.65005 22.3257 9.02442 21.7 8.25005 21.7H6.5088ZM20.85 21C20.85 20.0718 20.4813 19.1816 19.8249 18.5252C19.1685 17.8688 18.2783 17.5 17.35 17.5C16.4218 17.5 15.5316 17.8688 14.8752 18.5252C14.2188 19.1816 13.85 20.0718 13.85 21C13.85 21.9283 14.2188 22.8185 14.8752 23.4749C15.5316 24.1313 16.4218 24.5 17.35 24.5C18.2783 24.5 19.1685 24.1313 19.8249 23.4749C20.4813 22.8185 20.85 21.9283 20.85 21ZM13.15 21C13.15 19.8861 13.5925 18.8179 14.3802 18.0302C15.1679 17.2425 16.2361 16.8 17.35 16.8C18.464 16.8 19.5322 17.2425 20.3199 18.0302C21.1075 18.8179 21.55 19.8861 21.55 21C21.55 22.114 21.1075 23.1822 20.3199 23.9699C19.5322 24.7576 18.464 25.2 17.35 25.2C16.2361 25.2 15.1679 24.7576 14.3802 23.9699C13.5925 23.1822 13.15 22.114 13.15 21ZM17.35 21.7C17.5357 21.7 17.7137 21.6263 17.845 21.495C17.9763 21.3637 18.05 21.1857 18.05 21C18.05 20.8144 17.9763 20.6363 17.845 20.5051C17.7137 20.3738 17.5357 20.3 17.35 20.3C17.1644 20.3 16.9863 20.3738 16.8551 20.5051C16.7238 20.6363 16.65 20.8144 16.65 21C16.65 21.1857 16.7238 21.3637 16.8551 21.495C16.9863 21.6263 17.1644 21.7 17.35 21.7ZM17.35 19.6C17.7214 19.6 18.0774 19.7475 18.34 20.0101C18.6025 20.2726 18.75 20.6287 18.75 21C18.75 21.3714 18.6025 21.7274 18.34 21.99C18.0774 22.2525 17.7214 22.4 17.35 22.4C16.9787 22.4 16.6227 22.2525 16.3601 21.99C16.0975 21.7274 15.95 21.3714 15.95 21C15.95 20.6287 16.0975 20.2726 16.3601 20.0101C16.6227 19.7475 16.9787 19.6 17.35 19.6Z" fill="black"/>
</g>
</g>
</g>
<defs>
<clipPath id="clip0_21_1125">
<rect width="28" height="28" fill="white" transform="translate(0.550049)"/>
</clipPath>
<clipPath id="clip1_21_1125">
<rect width="28" height="28" fill="white" transform="translate(0.550049)"/>
</clipPath>
<clipPath id="clip2_21_1125">
<rect width="28" height="22.4" fill="white" transform="translate(0.550049 2.80005)"/>
</clipPath>
</defs>
</svg>
