<svg width="29" height="28" viewBox="0 0 29 28" fill="none" xmlns="http://www.w3.org/2000/svg">
<g clip-path="url(#clip0_21_1150)">
<g clip-path="url(#clip1_21_1150)">
<g clip-path="url(#clip2_21_1150)">
<path d="M4.92505 0.4375C4.92505 0.196875 4.72817 0 4.48755 0C4.24692 0 4.05005 0.196875 4.05005 0.4375C4.05005 1.93047 4.32895 2.90938 4.7938 3.60391C5.25317 4.2875 5.8602 4.64844 6.3852 4.95469L6.40708 4.97109C6.94849 5.29375 7.40239 5.56719 7.74146 6.07031C8.08052 6.57344 8.33755 7.35547 8.33755 8.75C8.33755 8.99063 8.53442 9.1875 8.77505 9.1875C9.01567 9.1875 9.21255 8.99063 9.21255 8.75C9.21255 7.25703 8.93364 6.27812 8.4688 5.58359C8.00942 4.9 7.40239 4.53906 6.87739 4.23281L6.85552 4.21641C6.31411 3.89375 5.86021 3.62031 5.52114 3.11719C5.18208 2.61406 4.92505 1.83203 4.92505 0.4375ZM12.0125 0.4375C12.0125 0.196875 11.8157 0 11.575 0C11.3344 0 11.1375 0.196875 11.1375 0.4375C11.1375 1.93047 11.4165 2.90938 11.8813 3.60391C12.3407 4.2875 12.9477 4.64844 13.4727 4.95469L13.4946 4.97109C14.036 5.29375 14.4899 5.56719 14.829 6.07031C15.168 6.57344 15.425 7.35547 15.425 8.75C15.425 8.99063 15.6219 9.1875 15.8625 9.1875C16.1032 9.1875 16.3 8.99063 16.3 8.75C16.3 7.25703 16.0211 6.27812 15.5563 5.58359C15.0969 4.9 14.4899 4.53906 13.9649 4.23281L13.943 4.21641C13.4016 3.89375 12.9477 3.62031 12.6086 3.11719C12.2696 2.61406 12.0125 1.83203 12.0125 0.4375ZM19.3625 11.375H20.675V22.75C20.675 25.1672 18.7172 27.125 16.3 27.125H5.80005C3.38286 27.125 1.42505 25.1672 1.42505 22.75V12.25C1.42505 11.7688 1.8188 11.375 2.30005 11.375H19.3625ZM21.55 21V11.375H22.8625C25.5204 11.375 27.675 13.5297 27.675 16.1875C27.675 18.8453 25.5204 21 22.8625 21H21.55ZM21.55 22.75V21.875H22.8625C26.0016 21.875 28.55 19.3266 28.55 16.1875C28.55 13.0484 26.0016 10.5 22.8625 10.5H21.55H20.675H19.3625H2.30005C1.33208 10.5 0.550049 11.282 0.550049 12.25V22.75C0.550049 25.6484 2.90161 28 5.80005 28H16.3C19.1985 28 21.55 25.6484 21.55 22.75Z" fill="black"/>
</g>
</g>
</g>
<defs>
<clipPath id="clip0_21_1150">
<rect width="28" height="28" fill="white" transform="translate(0.550049)"/>
</clipPath>
<clipPath id="clip1_21_1150">
<rect width="28" height="28" fill="white" transform="translate(0.550049)"/>
</clipPath>
<clipPath id="clip2_21_1150">
<rect width="28" height="28" fill="white" transform="translate(0.550049)"/>
</clipPath>
</defs>
</svg>
