<svg width="29" height="28" viewBox="0 0 29 28" fill="none" xmlns="http://www.w3.org/2000/svg">
<g clip-path="url(#clip0_21_1113)">
<g clip-path="url(#clip1_21_1113)">
<g clip-path="url(#clip2_21_1113)">
<path d="M9.76391 3.675C9.69282 3.78437 9.57797 3.85547 9.45219 3.87188C9.32641 3.88828 9.19516 3.85 9.10219 3.7625C8.32563 3.05703 7.29204 2.625 6.16 2.625C3.74282 2.625 1.785 4.58281 1.785 7C1.785 7.41016 1.83969 7.80391 1.9436 8.18125C1.9436 8.19219 1.94907 8.19766 1.94907 8.20859C2.56703 11.0469 4.66157 16.1984 5.41625 18.0086C5.50922 18.2328 5.72797 18.375 5.97407 18.375H9.135L7.47797 9.26406C7.43422 9.02891 7.59282 8.79922 7.82797 8.75547C8.06313 8.71172 8.29282 8.87031 8.33657 9.10547L10.0264 18.375H14.4725V7.4375C14.4725 7.19688 14.6694 7 14.91 7C15.1506 7 15.3475 7.19688 15.3475 7.4375V18.375H19.7936L21.478 9.11094C21.5217 8.87578 21.7514 8.71719 21.9866 8.76094C22.2217 8.80469 22.3803 9.03438 22.3366 9.26953L20.685 18.375H23.8459C24.092 18.375 24.3108 18.2273 24.4038 18.0086C25.1584 16.1984 27.253 11.0414 27.8709 8.20859C27.8709 8.20312 27.8709 8.19766 27.8764 8.19766C27.8764 8.19219 27.8764 8.19219 27.8819 8.18672C27.9858 7.80937 28.0405 7.41563 28.0405 7.00547C28.0405 4.58828 26.0827 2.63047 23.6655 2.63047C22.5334 2.63047 21.4998 3.0625 20.7233 3.76797C20.6303 3.85547 20.4991 3.89375 20.3733 3.87734C20.2475 3.86094 20.1327 3.78984 20.0616 3.68047C18.9623 1.99063 17.0647 0.875 14.91 0.875C12.7553 0.875 10.8577 1.99062 9.76391 3.675ZM9.64907 19.25H5.97953C5.38344 19.25 4.8475 18.9 4.61782 18.3422C3.8686 16.5594 1.74125 11.3367 1.10141 8.40547C0.975629 7.95703 0.910004 7.48672 0.910004 7C0.910004 4.10156 3.26157 1.75 6.16 1.75C7.34125 1.75 8.435 2.13828 9.31 2.8C10.5842 1.09922 12.6186 0 14.91 0C17.2014 0 19.2358 1.09922 20.51 2.8C21.385 2.14375 22.4788 1.75 23.66 1.75C26.5584 1.75 28.91 4.10156 28.91 7C28.91 7.48672 28.8444 7.95703 28.7186 8.40547C28.0788 11.3367 25.9514 16.5594 25.2077 18.3477C24.978 18.9 24.4366 19.2555 23.8459 19.2555H20.1709C20.1655 19.2555 20.16 19.2555 20.1545 19.2555H14.91H9.66547C9.66 19.2555 9.65454 19.2555 9.64907 19.2555V19.25ZM4.41 21H5.285V25.375C5.285 26.343 6.06703 27.125 7.035 27.125H22.785C23.753 27.125 24.535 26.343 24.535 25.375V21H25.41V25.375C25.41 26.8242 24.2342 28 22.785 28H7.035C5.58578 28 4.41 26.8242 4.41 25.375V21Z" fill="black"/>
</g>
</g>
</g>
<defs>
<clipPath id="clip0_21_1113">
<rect width="28" height="28" fill="white" transform="translate(0.910004)"/>
</clipPath>
<clipPath id="clip1_21_1113">
<rect width="28" height="28" fill="white" transform="translate(0.910004)"/>
</clipPath>
<clipPath id="clip2_21_1113">
<rect width="28" height="28" fill="white" transform="translate(0.910004)"/>
</clipPath>
</defs>
</svg>
