<svg width="29" height="28" viewBox="0 0 29 28" fill="none" xmlns="http://www.w3.org/2000/svg">
<g clip-path="url(#clip0_21_1144)">
<g clip-path="url(#clip1_21_1144)">
<g clip-path="url(#clip2_21_1144)">
<path d="M1.59497 14C1.59497 6.75391 7.47388 0.875 14.72 0.875C21.9661 0.875 27.845 6.75391 27.845 14V21.8805C27.845 23.5703 26.4723 24.943 24.7825 24.943L18.1817 24.9375C17.9739 23.6961 16.8911 22.75 15.595 22.75H13.845C12.3958 22.75 11.22 23.9258 11.22 25.375C11.22 26.8242 12.3958 28 13.845 28H15.595C16.8965 28 17.9739 27.0539 18.1817 25.8125L24.777 25.818C26.9536 25.818 28.7145 24.057 28.7145 21.8805V14C28.72 6.26719 22.4528 0 14.72 0C6.98716 0 0.719971 6.26719 0.719971 14V17.0625C0.719971 17.3031 0.916846 17.5 1.15747 17.5C1.3981 17.5 1.59497 17.3031 1.59497 17.0625V14ZM9.46997 12.25V19.25C9.46997 19.7313 9.07622 20.125 8.59497 20.125C6.6645 20.125 5.09497 18.5555 5.09497 16.625V14.875C5.09497 12.9445 6.6645 11.375 8.59497 11.375C9.07622 11.375 9.46997 11.7688 9.46997 12.25ZM4.21997 14.875V16.625C4.21997 19.0422 6.17778 21 8.59497 21C9.56294 21 10.345 20.218 10.345 19.25V12.25C10.345 11.282 9.56294 10.5 8.59497 10.5C6.17778 10.5 4.21997 12.4578 4.21997 14.875ZM19.97 12.25C19.97 11.7688 20.3637 11.375 20.845 11.375C22.7754 11.375 24.345 12.9445 24.345 14.875V16.625C24.345 18.5555 22.7754 20.125 20.845 20.125C20.3637 20.125 19.97 19.7313 19.97 19.25V12.25ZM25.22 14.875C25.22 12.4578 23.2622 10.5 20.845 10.5C19.877 10.5 19.095 11.282 19.095 12.25V19.25C19.095 20.218 19.877 21 20.845 21C23.2622 21 25.22 19.0422 25.22 16.625V14.875ZM17.345 25.375C17.345 26.343 16.5629 27.125 15.595 27.125H13.845C12.877 27.125 12.095 26.343 12.095 25.375C12.095 24.407 12.877 23.625 13.845 23.625H15.595C16.5629 23.625 17.345 24.407 17.345 25.375Z" fill="black"/>
</g>
</g>
</g>
<defs>
<clipPath id="clip0_21_1144">
<rect width="28" height="28" fill="white" transform="translate(0.719971)"/>
</clipPath>
<clipPath id="clip1_21_1144">
<rect width="28" height="28" fill="white" transform="translate(0.719971)"/>
</clipPath>
<clipPath id="clip2_21_1144">
<rect width="28" height="28" fill="white" transform="translate(0.719971)"/>
</clipPath>
</defs>
</svg>
