<svg width="29" height="28" viewBox="0 0 29 28" fill="none" xmlns="http://www.w3.org/2000/svg">
<g clip-path="url(#clip0_21_1119)">
<g clip-path="url(#clip1_21_1119)">
<g clip-path="url(#clip2_21_1119)">
<path d="M19.5324 0C19.7731 0 19.9699 0.196875 19.9699 0.4375V3.9375H23.4699C23.7106 3.9375 23.9074 4.13438 23.9074 4.375C23.9074 4.61562 23.7106 4.8125 23.4699 4.8125H19.9699V8.3125C19.9699 8.55313 19.7731 8.75 19.5324 8.75C19.2918 8.75 19.0949 8.55313 19.0949 8.3125V4.8125H15.5949C15.3543 4.8125 15.1574 4.61562 15.1574 4.375C15.1574 4.13438 15.3543 3.9375 15.5949 3.9375H19.0949V0.4375C19.0949 0.196875 19.2918 0 19.5324 0ZM8.2887 14.1367C8.16291 14.3938 7.91682 14.5742 7.63245 14.618L1.97229 15.4383C1.61135 15.493 1.46916 15.9305 1.73167 16.182L5.82776 20.1852C6.03557 20.3875 6.12854 20.6773 6.07932 20.9563L5.11135 26.6109C5.0512 26.9664 5.42307 27.2398 5.74573 27.0703L10.8098 24.4016C11.0668 24.2648 11.3676 24.2648 11.6246 24.4016L16.6832 27.0703C17.0059 27.2398 17.3778 26.9664 17.3176 26.6109L16.3551 20.9617C16.3059 20.6773 16.3989 20.3875 16.6067 20.1906L20.7028 16.1875C20.9598 15.9359 20.8176 15.493 20.4621 15.4437L14.7965 14.6125C14.5121 14.5688 14.266 14.3937 14.1403 14.1312L11.6082 8.99062C11.4496 8.6625 10.9848 8.6625 10.8207 8.99062L8.2887 14.1312V14.1367ZM1.1137 16.8109C0.337134 16.0508 0.769165 14.7273 1.84104 14.5742L7.5012 13.7484L10.0332 8.60781C10.5145 7.62891 11.909 7.62891 12.3903 8.60781L14.9223 13.7484L20.5824 14.5742C21.6598 14.7328 22.0864 16.0508 21.3098 16.8109L17.2137 20.8141L18.1817 26.4633C18.3676 27.5352 17.241 28.3555 16.2785 27.8469L11.2145 25.1781L6.15041 27.8469C5.18791 28.3555 4.06135 27.5352 4.24729 26.4633L5.21526 20.8141L1.1137 16.8109ZM26.0949 8.75V11.375H28.7199C28.9606 11.375 29.1574 11.5719 29.1574 11.8125C29.1574 12.0531 28.9606 12.25 28.7199 12.25H26.0949V14.875C26.0949 15.1156 25.8981 15.3125 25.6574 15.3125C25.4168 15.3125 25.2199 15.1156 25.2199 14.875V12.25H22.5949C22.3543 12.25 22.1574 12.0531 22.1574 11.8125C22.1574 11.5719 22.3543 11.375 22.5949 11.375H25.2199V8.75C25.2199 8.50937 25.4168 8.3125 25.6574 8.3125C25.8981 8.3125 26.0949 8.50937 26.0949 8.75Z" fill="black"/>
</g>
</g>
</g>
<defs>
<clipPath id="clip0_21_1119">
<rect width="28" height="28" fill="white" transform="translate(0.719971)"/>
</clipPath>
<clipPath id="clip1_21_1119">
<rect width="28" height="28" fill="white" transform="translate(0.719971)"/>
</clipPath>
<clipPath id="clip2_21_1119">
<rect width="28" height="28" fill="white" transform="translate(0.719971)"/>
</clipPath>
</defs>
</svg>
