<svg width="29" height="28" viewBox="0 0 29 28" fill="none" xmlns="http://www.w3.org/2000/svg">
<g clip-path="url(#clip0_21_1131)">
<g clip-path="url(#clip1_21_1131)">
<path d="M14.36 0.875C17.7451 0.875 20.485 3.61484 20.485 7V10.5H8.23499V7C8.23499 3.61484 10.9748 0.875 14.36 0.875ZM7.35999 7V10.5H5.60999C3.67952 10.5 2.10999 12.0695 2.10999 14V24.5C2.10999 26.4305 3.67952 28 5.60999 28H23.11C25.0405 28 26.61 26.4305 26.61 24.5V14C26.61 12.0695 25.0405 10.5 23.11 10.5H21.36V7C21.36 3.13359 18.2264 0 14.36 0C10.4936 0 7.35999 3.13359 7.35999 7ZM5.60999 11.375H7.35999H8.23499H20.485H21.36H23.11C24.5592 11.375 25.735 12.5508 25.735 14V24.5C25.735 25.9492 24.5592 27.125 23.11 27.125H5.60999C4.16077 27.125 2.98499 25.9492 2.98499 24.5V14C2.98499 12.5508 4.16077 11.375 5.60999 11.375ZM15.235 17.5V21C15.235 21.4813 14.8412 21.875 14.36 21.875C13.8787 21.875 13.485 21.4813 13.485 21V17.5C13.485 17.0187 13.8787 16.625 14.36 16.625C14.8412 16.625 15.235 17.0187 15.235 17.5ZM12.61 17.5V21C12.61 21.968 13.392 22.75 14.36 22.75C15.328 22.75 16.11 21.968 16.11 21V17.5C16.11 16.532 15.328 15.75 14.36 15.75C13.392 15.75 12.61 16.532 12.61 17.5Z" fill="black"/>
</g>
</g>
<defs>
<clipPath id="clip0_21_1131">
<rect width="28" height="28" fill="white" transform="translate(0.359985)"/>
</clipPath>
<clipPath id="clip1_21_1131">
<rect width="24.5" height="28" fill="white" transform="translate(2.10999)"/>
</clipPath>
</defs>
</svg>
