<svg width="29" height="28" viewBox="0 0 29 28" fill="none" xmlns="http://www.w3.org/2000/svg">
<g clip-path="url(#clip0_21_1137)">
<g clip-path="url(#clip1_21_1137)">
<g clip-path="url(#clip2_21_1137)">
<path d="M18.3116 15.75C17.8631 15.75 17.4913 16.0836 17.442 16.5266L16.835 21.968C16.7858 22.4109 16.4139 22.7445 15.9655 22.7445H13.8491C13.4006 22.7445 13.0288 22.4109 12.9795 21.968L12.3725 16.5266C12.3233 16.0836 11.9514 15.75 11.503 15.75H11.41C10.9288 15.75 10.535 15.3562 10.535 14.875V12.25C10.535 10.8008 11.7108 9.625 13.16 9.625H16.66C18.1092 9.625 19.285 10.8008 19.285 12.25V14.875C19.285 15.3562 18.8913 15.75 18.41 15.75H18.3116ZM12.285 3.5C12.285 2.80381 12.5616 2.13613 13.0538 1.64384C13.5461 1.15156 14.2138 0.875 14.91 0.875C15.6062 0.875 16.2739 1.15156 16.7662 1.64384C17.2584 2.13613 17.535 2.80381 17.535 3.5C17.535 4.19619 17.2584 4.86387 16.7662 5.35616C16.2739 5.84844 15.6062 6.125 14.91 6.125C14.2138 6.125 13.5461 5.84844 13.0538 5.35616C12.5616 4.86387 12.285 4.19619 12.285 3.5ZM18.41 16.625C19.378 16.625 20.16 15.843 20.16 14.875V12.25C20.16 10.3195 18.5905 8.75 16.66 8.75H13.16C11.2295 8.75 9.66 10.3195 9.66 12.25V14.875C9.66 15.843 10.442 16.625 11.41 16.625H11.5084L12.1155 22.0664C12.2139 22.9523 12.9631 23.625 13.8545 23.625H15.9709C16.8623 23.625 17.6116 22.9523 17.71 22.0664L18.3116 16.625H18.41ZM14.91 7C15.8383 7 16.7285 6.63125 17.3849 5.97487C18.0413 5.3185 18.41 4.42826 18.41 3.5C18.41 2.57174 18.0413 1.6815 17.3849 1.02513C16.7285 0.368749 15.8383 0 14.91 0C13.9817 0 13.0915 0.368749 12.4351 1.02513C11.7788 1.6815 11.41 2.57174 11.41 3.5C11.41 4.42826 11.7788 5.3185 12.4351 5.97487C13.0915 6.63125 13.9817 7 14.91 7ZM7.51625 20.1141C7.75141 20.0648 7.90453 19.8352 7.85532 19.5945C7.8061 19.3539 7.57641 19.2063 7.33578 19.2555C5.48188 19.6438 3.91235 20.1797 2.79125 20.825C1.70844 21.4539 0.910004 22.2687 0.910004 23.2695C0.910004 24.0625 1.4186 24.7406 2.15141 25.293C2.88969 25.8453 3.93422 26.3266 5.18657 26.7258C7.69672 27.5133 11.1311 28 14.91 28C18.6889 28 22.1233 27.5133 24.6334 26.7203C25.8858 26.3266 26.9303 25.8453 27.6686 25.2875C28.4014 24.7406 28.91 24.0625 28.91 23.2641C28.91 22.2633 28.1116 21.4484 27.0233 20.8195C25.9077 20.1742 24.3381 19.6437 22.4788 19.25C22.2436 19.2008 22.0084 19.3539 21.9592 19.5891C21.91 19.8242 22.0631 20.0594 22.2983 20.1086C24.1084 20.4859 25.5795 20.9945 26.5858 21.5797C27.6194 22.1758 28.035 22.7664 28.035 23.2641C28.035 23.6578 27.7834 24.1063 27.1436 24.5875C26.5092 25.0578 25.5686 25.5062 24.3655 25.8836C21.9647 26.6492 18.6233 27.125 14.91 27.125C11.1967 27.125 7.85532 26.6492 5.45454 25.8891C4.25141 25.5063 3.31078 25.0633 2.67641 24.593C2.03657 24.1117 1.785 23.6633 1.785 23.2695C1.785 22.7719 2.19516 22.1813 3.23422 21.5852C4.24047 21.0055 5.71157 20.4969 7.52172 20.1141H7.51625Z" fill="black"/>
</g>
</g>
</g>
<defs>
<clipPath id="clip0_21_1137">
<rect width="28" height="28" fill="white" transform="translate(0.910004)"/>
</clipPath>
<clipPath id="clip1_21_1137">
<rect width="28" height="28" fill="white" transform="translate(0.910004)"/>
</clipPath>
<clipPath id="clip2_21_1137">
<rect width="28" height="28" fill="white" transform="translate(0.910004)"/>
</clipPath>
</defs>
</svg>
