<svg width="29" height="28" viewBox="0 0 29 28" fill="none" xmlns="http://www.w3.org/2000/svg">
<g clip-path="url(#clip0_21_1156)">
<g clip-path="url(#clip1_21_1156)">
<g clip-path="url(#clip2_21_1156)">
<path d="M4.36068 4.75899C4.5211 4.89997 4.54054 5.14788 4.39957 5.3083C2.36762 7.63191 1.13776 10.6701 1.13776 14C1.13776 17.3298 2.36762 20.368 4.39471 22.6916C4.53568 22.852 4.5211 23.1 4.35582 23.2409C4.19054 23.3819 3.94749 23.3673 3.80651 23.202C1.66276 20.7423 0.359985 17.5243 0.359985 14C0.359985 10.4757 1.66276 7.2576 3.81137 4.79788C3.95235 4.63747 4.20026 4.61802 4.36068 4.75899ZM24.3642 4.75899C24.5246 4.61802 24.7725 4.6326 24.9135 4.79788C27.0621 7.2576 28.3648 10.4805 28.3648 14C28.3648 17.5194 27.0621 20.7423 24.9135 23.202C24.7725 23.3625 24.5246 23.3819 24.3642 23.2409C24.2037 23.1 24.1843 22.852 24.3253 22.6916C26.3523 20.368 27.5822 17.3298 27.5822 14C27.5822 10.6701 26.3523 7.63191 24.3253 5.3083C24.1843 5.14788 24.1989 4.89997 24.3642 4.75899ZM12.0267 14C12.0267 13.3811 12.2725 12.7876 12.7101 12.3501C13.1477 11.9125 13.7411 11.6666 14.36 11.6666C14.9788 11.6666 15.5723 11.9125 16.0099 12.3501C16.4475 12.7876 16.6933 13.3811 16.6933 14C16.6933 14.6188 16.4475 15.2123 16.0099 15.6499C15.5723 16.0875 14.9788 16.3333 14.36 16.3333C13.7411 16.3333 13.1477 16.0875 12.7101 15.6499C12.2725 15.2123 12.0267 14.6188 12.0267 14ZM14.36 15.5555C14.7725 15.5555 15.1682 15.3916 15.4599 15.0999C15.7517 14.8082 15.9155 14.4125 15.9155 14C15.9155 13.5874 15.7517 13.1917 15.4599 12.9C15.1682 12.6083 14.7725 12.4444 14.36 12.4444C13.9474 12.4444 13.5518 12.6083 13.26 12.9C12.9683 13.1917 12.8044 13.5874 12.8044 14C12.8044 14.4125 12.9683 14.8082 13.26 15.0999C13.5518 15.3916 13.9474 15.5555 14.36 15.5555ZM7.87526 8.41455C6.58707 9.91663 5.80443 11.8659 5.80443 14C5.80443 16.134 6.58707 18.0833 7.87526 19.5854C8.01624 19.7458 7.99679 19.9937 7.83637 20.1347C7.67596 20.2757 7.42804 20.2562 7.28707 20.0958C5.87735 18.4576 5.02665 16.3284 5.02665 14C5.02665 11.6715 5.87735 9.54233 7.28707 7.90899C7.42804 7.74858 7.6711 7.72913 7.83637 7.8701C8.00165 8.01108 8.01624 8.25413 7.87526 8.41941V8.41455ZM21.4329 7.90899C22.8426 9.54233 23.6933 11.6715 23.6933 14C23.6933 16.3284 22.8426 18.4576 21.4329 20.0909C21.2919 20.2514 21.0489 20.2708 20.8836 20.1298C20.7183 19.9889 20.7037 19.7458 20.8447 19.5805C22.1329 18.0833 22.9155 16.134 22.9155 14C22.9155 11.8659 22.1329 9.91663 20.8447 8.41455C20.7037 8.25413 20.7232 8.00622 20.8836 7.86524C21.044 7.72427 21.2919 7.74372 21.4329 7.90413V7.90899Z" fill="black"/>
</g>
</g>
</g>
<defs>
<clipPath id="clip0_21_1156">
<rect width="28" height="28" fill="white" transform="translate(0.359985)"/>
</clipPath>
<clipPath id="clip1_21_1156">
<rect width="28" height="28" fill="white" transform="translate(0.359985)"/>
</clipPath>
<clipPath id="clip2_21_1156">
<rect width="28" height="24.8889" fill="white" transform="translate(0.359985 1.55554)"/>
</clipPath>
</defs>
</svg>
