<svg width="29" height="28" viewBox="0 0 29 28" fill="none" xmlns="http://www.w3.org/2000/svg">
<g clip-path="url(#clip0_21_1101)">
<g clip-path="url(#clip1_21_1101)">
<g clip-path="url(#clip2_21_1101)">
<path d="M1.15377 10.4693C4.57502 7.0262 9.31315 4.89995 14.55 4.89995C19.7869 4.89995 24.525 7.0262 27.9463 10.4693C28.0819 10.605 28.305 10.605 28.4406 10.4693C28.5763 10.3337 28.5763 10.1106 28.4406 9.97495C24.8925 6.40933 19.9794 4.19995 14.55 4.19995C9.12065 4.19995 4.20752 6.40933 0.659397 9.97495C0.523772 10.1106 0.523772 10.3337 0.659397 10.4693C0.795022 10.605 1.01815 10.605 1.15377 10.4693ZM14.55 11.9C17.7088 11.9 20.5788 13.1293 22.7094 15.1375C22.8494 15.2687 23.0725 15.2643 23.2038 15.1243C23.335 14.9843 23.3306 14.7612 23.1906 14.63C20.9331 12.5037 17.8925 11.2 14.55 11.2C11.2075 11.2 8.1669 12.5037 5.9094 14.63C5.7694 14.7612 5.76065 14.9843 5.89627 15.1243C6.0319 15.2643 6.25065 15.2731 6.39065 15.1375C8.52127 13.1293 11.3913 11.9 14.55 11.9ZM14.55 18.9C15.107 18.9 15.6411 19.1212 16.0349 19.515C16.4288 19.9089 16.65 20.443 16.65 21C16.65 21.5569 16.4288 22.091 16.0349 22.4849C15.6411 22.8787 15.107 23.1 14.55 23.1C13.9931 23.1 13.4589 22.8787 13.0651 22.4849C12.6713 22.091 12.45 21.5569 12.45 21C12.45 20.443 12.6713 19.9089 13.0651 19.515C13.4589 19.1212 13.9931 18.9 14.55 18.9ZM14.55 23.8C15.2926 23.8 16.0048 23.505 16.5299 22.9798C17.055 22.4547 17.35 21.7426 17.35 21C17.35 20.2573 17.055 19.5452 16.5299 19.0201C16.0048 18.495 15.2926 18.2 14.55 18.2C13.8074 18.2 13.0952 18.495 12.5701 19.0201C12.045 19.5452 11.75 20.2573 11.75 21C11.75 21.7426 12.045 22.4547 12.5701 22.9798C13.0952 23.505 13.8074 23.8 14.55 23.8Z" fill="black"/>
</g>
</g>
</g>
<defs>
<clipPath id="clip0_21_1101">
<rect width="28" height="28" fill="white" transform="translate(0.550049)"/>
</clipPath>
<clipPath id="clip1_21_1101">
<rect width="28" height="28" fill="white" transform="translate(0.550049)"/>
</clipPath>
<clipPath id="clip2_21_1101">
<rect width="28" height="22.4" fill="white" transform="translate(0.550049 2.80005)"/>
</clipPath>
</defs>
</svg>
