<svg width="16" height="16" viewBox="0 0 16 16" fill="none" xmlns="http://www.w3.org/2000/svg">
<g opacity="0.8" clip-path="url(#clip0_23_61)">
<g clip-path="url(#clip1_23_61)">
<path d="M6.5 0.5C6.3375 0.5 6.14062 0.584375 5.90938 0.85C5.67813 1.1125 5.45625 1.50625 5.25625 1.98438C5.025 2.53437 4.8375 3.15937 4.69062 3.75312C5.54688 4.025 6.65938 4.25 8 4.25C9.2875 4.25 10.4156 4.00938 11.3031 3.72187C11.1562 3.1375 10.9688 2.525 10.7437 1.98438C10.5437 1.50625 10.3219 1.1125 10.0906 0.85C9.85938 0.584375 9.6625 0.5 9.5 0.5C9.12813 0.5 8.97188 0.5875 8.84688 0.66875C8.83125 0.678125 8.8125 0.69375 8.79063 0.70625C8.65 0.809375 8.38125 1 8 1C7.61875 1 7.35 0.809375 7.20625 0.70625C7.18438 0.690625 7.16563 0.678125 7.15 0.66875C7.02813 0.5875 6.87187 0.5 6.49687 0.5H6.5ZM9.5 0C10.625 0 11.3531 1.89688 11.775 3.55625C11.8094 3.54375 11.8438 3.53125 11.8781 3.51875C12.3531 3.33437 12.725 3.15313 12.9781 3.01562C13.1062 2.94688 13.2031 2.89062 13.2656 2.85313C13.2969 2.83438 13.3219 2.81875 13.3375 2.80938L13.3562 2.79688L13.3594 2.79375C13.475 2.71563 13.6281 2.74688 13.7063 2.8625C13.7844 2.97812 13.7531 3.13125 13.6375 3.20937L13.5 3C13.6375 3.20937 13.6375 3.20937 13.6375 3.20937H13.6344L13.6281 3.2125L13.6062 3.225C13.5875 3.2375 13.5594 3.25313 13.525 3.275C13.4531 3.31875 13.35 3.37812 13.2156 3.45C12.9469 3.59375 12.5531 3.7875 12.0594 3.97813C11.0687 4.36562 9.6625 4.75 8 4.75C6.2125 4.75 4.80625 4.36562 3.84375 3.98125C3.3625 3.7875 2.99375 3.59687 2.74063 3.45C2.61563 3.37812 2.51875 3.31562 2.45312 3.27187C2.42188 3.25 2.39375 3.23125 2.37812 3.21875L2.35938 3.20312L2.35312 3.2H2.35C2.35 3.2 2.35 3.2 2.5 3L2.35 3.2C2.24063 3.11563 2.21562 2.95937 2.3 2.85C2.38437 2.74062 2.54062 2.71875 2.65 2.8L2.65313 2.80312L2.66875 2.8125C2.68125 2.82188 2.70312 2.8375 2.73125 2.85625C2.7875 2.89375 2.875 2.95 2.99375 3.01875C3.22813 3.15313 3.575 3.33437 4.03125 3.51875C4.09063 3.54375 4.15313 3.56562 4.21563 3.59063C4.6375 1.92188 5.36875 0 6.5 0C7.0625 0 7.30937 0.16875 7.51562 0.309375C7.6625 0.4125 7.79063 0.5 8 0.5C8.20937 0.5 8.3375 0.4125 8.48438 0.309375C8.69063 0.16875 8.9375 0 9.5 0ZM4.125 7C4.04375 6.68125 4 6.34375 4 6C4 5.70312 4.03125 5.41562 4.09375 5.1375C4.24688 5.1875 4.40625 5.2375 4.575 5.28438C4.52813 5.51562 4.50312 5.75313 4.50312 6C4.50312 7.93437 6.06875 9.5 8.00313 9.5C9.9375 9.5 11.5031 7.93437 11.5031 6C11.5031 5.74375 11.475 5.49375 11.425 5.25313C11.5906 5.20312 11.75 5.15313 11.9031 5.10313C11.9688 5.39062 12.0031 5.69063 12.0031 6C12.0031 6.34375 11.9594 6.68125 11.8781 7H14.1031C14.325 7 14.5031 7.17812 14.5031 7.4C14.5031 7.46563 14.4875 7.52813 14.4563 7.5875L13.0281 10.3C14.2375 11.4 15 12.9844 15 14.75V15C15 15.5531 14.5531 16 14 16H2C1.44687 16 1 15.5531 1 15V14.75C1 12.9844 1.7625 11.4 2.975 10.3L1.54688 7.5875C1.51562 7.53125 1.5 7.46563 1.5 7.4C1.5 7.17812 1.67812 7 1.9 7H4.125ZM11.7094 7.5C11.1156 8.96562 9.67813 10 8 10C6.32188 10 4.88438 8.96562 4.29063 7.5H2.06562L3.41875 10.0688C3.525 10.2719 3.48125 10.5188 3.3125 10.6719C2.19687 11.6781 1.5 13.1313 1.5 14.75V15C1.5 15.275 1.725 15.5 2 15.5H6.24062L5.25938 12.0688C5.22188 11.9375 5.29688 11.7969 5.43125 11.7594C5.56563 11.7219 5.70312 11.7969 5.74062 11.9312L6.65 15.1156L7.70625 12.7906L6.55625 11.4125C6.49375 11.3375 6.48125 11.2344 6.52187 11.1469C6.5625 11.0594 6.65 11.0031 6.74687 11.0031H9.24687C9.34375 11.0031 9.43125 11.0594 9.47188 11.1469C9.5125 11.2344 9.5 11.3375 9.4375 11.4125L8.2875 12.7906L9.34375 15.1156L10.2531 11.9312C10.2906 11.8 10.4281 11.7219 10.5625 11.7594C10.6969 11.7969 10.7719 11.9344 10.7344 12.0688L9.75937 15.5H14C14.275 15.5 14.5 15.275 14.5 15V14.75C14.5 13.1313 13.8031 11.6781 12.6906 10.6719C12.5219 10.5188 12.4781 10.2719 12.5844 10.0688L13.9344 7.5H11.7094ZM8 13.3531L7.025 15.5H8.975L8 13.3531ZM5 5.39687C5.1625 5.4375 5.32812 5.47187 5.5 5.50625V5.83125C5.5 6.38438 5.94688 6.83125 6.5 6.83125H6.64062C7.07188 6.83125 7.45312 6.55625 7.59062 6.14687L7.725 5.74375C7.81562 5.74688 7.90938 5.74687 8 5.74687C8.09062 5.74687 8.18438 5.74688 8.275 5.74375L8.40938 6.14687C8.54688 6.55625 8.92812 6.83125 9.35938 6.83125H9.5C10.0531 6.83125 10.5 6.38438 10.5 5.83125V5.4875C10.6719 5.45 10.8375 5.4125 11 5.37187V5.83437C11 6.6625 10.3281 7.33437 9.5 7.33437H9.35938C8.77187 7.33437 8.24375 6.99062 8 6.46875C7.75625 6.99062 7.22813 7.33437 6.64062 7.33437H6.5C5.67188 7.33437 5 6.6625 5 5.83437V5.39687ZM8 12.3594L8.71562 11.5H7.28438L8 12.3594Z" fill="black"/>
</g>
</g>
<defs>
<clipPath id="clip0_23_61">
<rect width="16" height="16" fill="white"/>
</clipPath>
<clipPath id="clip1_23_61">
<rect width="14" height="16" fill="white" transform="translate(1)"/>
</clipPath>
</defs>
</svg>
