<svg width="16" height="16" viewBox="0 0 16 16" fill="none" xmlns="http://www.w3.org/2000/svg">
<g opacity="0.8" clip-path="url(#clip0_23_70)">
<g clip-path="url(#clip1_23_70)">
<g clip-path="url(#clip2_23_70)">
<path d="M4.5 2.5C4.5 2.71875 4.6125 2.95312 4.87187 3.19375C4.99062 3.30312 5.1375 3.4125 5.30937 3.51562C5.04688 3.525 4.7875 3.54063 4.53438 3.5625L4.53125 3.55938C4.20937 3.2625 4 2.90313 4 2.5C4 2.09687 4.20937 1.7375 4.53125 1.44062C4.85313 1.14375 5.30625 0.8875 5.84375 0.675C6.91875 0.25625 8.39062 0 10 0C11.6094 0 13.0813 0.25625 14.1562 0.675C14.6938 0.884375 15.1469 1.14062 15.4656 1.44062C15.7875 1.7375 15.9969 2.09687 15.9969 2.5V5.75V9.05937C15.9969 9.45625 15.7844 9.80937 15.4625 10.0969C15.1406 10.3844 14.6875 10.6375 14.1531 10.8406C13.8062 10.9719 13.4187 11.0875 12.9969 11.1844V10.6719C13.3531 10.5875 13.6813 10.4875 13.975 10.375C14.4781 10.1844 14.8688 9.95937 15.1281 9.72812C15.3875 9.49687 15.4969 9.26875 15.4969 9.0625V6.75625C15.4844 6.76562 15.475 6.77812 15.4625 6.7875C15.1406 7.07812 14.6875 7.32812 14.1531 7.53125C13.8062 7.6625 13.4187 7.77812 12.9969 7.875V7.3625C13.3531 7.27813 13.6813 7.17813 13.975 7.06563C14.4781 6.875 14.8688 6.65 15.1281 6.41875C15.3875 6.1875 15.4969 5.95938 15.4969 5.75313V3.53125C15.4875 3.54063 15.475 3.55 15.4656 3.5625C15.1438 3.85938 14.6906 4.11562 14.1562 4.32812C13.5281 4.575 12.7625 4.7625 11.9156 4.87813C11.6937 4.72188 11.4469 4.58125 11.1844 4.45625C12.2688 4.36563 13.2313 4.15312 13.975 3.8625C14.4781 3.66562 14.8688 3.4375 15.1281 3.19688C15.3875 2.95312 15.5 2.71875 15.5 2.5C15.5 2.28125 15.3875 2.04688 15.1281 1.80625C14.8688 1.56562 14.4781 1.3375 13.975 1.14062C12.9688 0.75 11.5656 0.5 10 0.5C8.43437 0.5 7.03125 0.75 6.025 1.14062C5.52187 1.3375 5.13125 1.56562 4.87187 1.80625C4.6125 2.04688 4.5 2.28125 4.5 2.5ZM0.5 7C0.5 7.21875 0.6125 7.45312 0.871875 7.69375C1.13125 7.93437 1.52188 8.1625 2.025 8.35938C3.03125 8.75 4.43437 9 6 9C7.56563 9 8.96875 8.75 9.975 8.35938C10.4781 8.1625 10.8688 7.93437 11.1281 7.69375C11.3875 7.45312 11.5 7.21875 11.5 7C11.5 6.78125 11.3875 6.54688 11.1281 6.30625C10.8688 6.06563 10.4781 5.8375 9.975 5.64062C8.96875 5.25 7.56563 5 6 5C4.43437 5 3.03125 5.25 2.025 5.64062C1.52188 5.8375 1.13125 6.06563 0.871875 6.30625C0.6125 6.54688 0.5 6.78125 0.5 7ZM0 7C0 6.59688 0.209375 6.2375 0.53125 5.94063C0.853125 5.64375 1.30625 5.3875 1.84375 5.175C2.91875 4.75625 4.39062 4.5 6 4.5C7.60938 4.5 9.08125 4.75625 10.1562 5.175C10.6938 5.38438 11.1469 5.64062 11.4656 5.94063C11.7875 6.2375 11.9969 6.59688 11.9969 7V10.25V13.5594C11.9969 13.9563 11.7844 14.3094 11.4625 14.5969C11.1406 14.8844 10.6875 15.1375 10.1531 15.3406C9.07812 15.7531 7.60938 16 6 16C4.39062 16 2.92188 15.7531 1.84375 15.3406C1.30625 15.1375 0.85625 14.8875 0.534375 14.5969C0.2125 14.3063 0 13.9563 0 13.5594V10.25V7ZM11.5 8.02812C11.4906 8.0375 11.4781 8.04688 11.4688 8.05937C11.1469 8.35625 10.6938 8.6125 10.1594 8.825C9.08125 9.24375 7.60938 9.5 6 9.5C4.39062 9.5 2.91875 9.24375 1.84375 8.825C1.30625 8.61562 0.853125 8.35938 0.53125 8.05937C0.521875 8.05 0.509375 8.04062 0.5 8.02812V10.25C0.5 10.4563 0.609375 10.6812 0.86875 10.9156C1.12812 11.15 1.51875 11.3719 2.02187 11.5625C3.02812 11.9469 4.43437 12.1875 6 12.1875C7.56563 12.1875 8.97187 11.9438 9.97812 11.5625C10.4812 11.3719 10.8719 11.1469 11.1313 10.9156C11.3906 10.6844 11.5 10.4563 11.5 10.25V8.02812ZM0.534375 11.2875C0.521875 11.2781 0.5125 11.2656 0.5 11.2563V13.5594C0.5 13.7656 0.609375 13.9906 0.86875 14.225C1.12812 14.4594 1.51875 14.6812 2.02187 14.8719C3.02812 15.2562 4.43437 15.4969 6 15.4969C7.56563 15.4969 8.97187 15.2562 9.97812 14.8719C10.4812 14.6812 10.8719 14.4563 11.1313 14.225C11.3906 13.9938 11.5 13.7656 11.5 13.5594V11.2563C11.4875 11.2656 11.4781 11.2781 11.4656 11.2875C11.1438 11.5781 10.6906 11.8281 10.1562 12.0312C9.08125 12.4406 7.6125 12.6906 6 12.6906C4.3875 12.6906 2.92188 12.4438 1.84375 12.0312C1.30625 11.8281 0.85625 11.5781 0.534375 11.2875Z" fill="black"/>
</g>
</g>
</g>
<defs>
<clipPath id="clip0_23_70">
<rect width="16" height="16" fill="white"/>
</clipPath>
<clipPath id="clip1_23_70">
<rect width="16" height="16" fill="white"/>
</clipPath>
<clipPath id="clip2_23_70">
<rect width="16" height="16" fill="white"/>
</clipPath>
</defs>
</svg>
