<svg width="16" height="16" viewBox="0 0 16 16" fill="none" xmlns="http://www.w3.org/2000/svg">
<g opacity="0.8" clip-path="url(#clip0_23_52)">
<g clip-path="url(#clip1_23_52)">
<path d="M13.5 6C13.5 2.9625 11.0375 0.5 8 0.5C4.9625 0.5 2.5 2.9625 2.5 6C2.5 6.58437 2.7 7.32812 3.05625 8.175C3.40937 9.01562 3.90313 9.91875 4.45312 10.8094C5.55312 12.5906 6.85313 14.2906 7.65 15.2844C7.83437 15.5125 8.16875 15.5125 8.35 15.2844C9.14687 14.2906 10.4469 12.5906 11.5469 10.8094C12.0969 9.91875 12.5906 9.01562 12.9438 8.175C13.3 7.32812 13.5 6.58437 13.5 6ZM14 6C14 8.73125 10.3438 13.5938 8.74062 15.6C8.35625 16.0781 7.64375 16.0781 7.25938 15.6C5.65625 13.5938 2 8.73125 2 6C2 2.6875 4.6875 0 8 0C11.3125 0 14 2.6875 14 6ZM8 3.5C8.66304 3.5 9.29893 3.76339 9.76777 4.23223C10.2366 4.70107 10.5 5.33696 10.5 6C10.5 6.66304 10.2366 7.29893 9.76777 7.76777C9.29893 8.23661 8.66304 8.5 8 8.5C7.33696 8.5 6.70107 8.23661 6.23223 7.76777C5.76339 7.29893 5.5 6.66304 5.5 6C5.5 5.33696 5.76339 4.70107 6.23223 4.23223C6.70107 3.76339 7.33696 3.5 8 3.5ZM10 6C10 5.46957 9.78929 4.96086 9.41421 4.58579C9.03914 4.21071 8.53043 4 8 4C7.46957 4 6.96086 4.21071 6.58579 4.58579C6.21071 4.96086 6 5.46957 6 6C6 6.53043 6.21071 7.03914 6.58579 7.41421C6.96086 7.78929 7.46957 8 8 8C8.53043 8 9.03914 7.78929 9.41421 7.41421C9.78929 7.03914 10 6.53043 10 6Z" fill="black"/>
</g>
</g>
<defs>
<clipPath id="clip0_23_52">
<rect width="16" height="16" fill="white"/>
</clipPath>
<clipPath id="clip1_23_52">
<rect width="12" height="16" fill="white" transform="translate(2)"/>
</clipPath>
</defs>
</svg>
