<svg width="16" height="16" viewBox="0 0 16 16" fill="none" xmlns="http://www.w3.org/2000/svg">
<g opacity="0.8" clip-path="url(#clip0_23_79)">
<path d="M1.5 7.17188C1.5 7.56875 1.65938 7.95 1.94063 8.23125L7.44063 13.7312C8.025 14.3156 8.975 14.3156 9.5625 13.7312L13.7312 9.55937C14.3156 8.975 14.3156 8.025 13.7312 7.4375L8.23125 1.9375C7.95 1.65625 7.56875 1.49688 7.17188 1.49688H2.5C1.94687 1.5 1.5 1.94687 1.5 2.5V7.17188ZM1 7.17188V2.5C1 1.67188 1.67188 1 2.5 1H7.17188C7.70312 1 8.2125 1.20938 8.5875 1.58438L14.0875 7.08437C14.8687 7.86562 14.8687 9.13125 14.0875 9.9125L9.91562 14.0844C9.13437 14.8656 7.86875 14.8656 7.0875 14.0844L1.5875 8.58438C1.20937 8.20938 1 7.70312 1 7.17188ZM4.5 3.25C4.83152 3.25 5.14946 3.3817 5.38388 3.61612C5.6183 3.85054 5.75 4.16848 5.75 4.5C5.75 4.83152 5.6183 5.14946 5.38388 5.38388C5.14946 5.6183 4.83152 5.75 4.5 5.75C4.16848 5.75 3.85054 5.6183 3.61612 5.38388C3.3817 5.14946 3.25 4.83152 3.25 4.5C3.25 4.16848 3.3817 3.85054 3.61612 3.61612C3.85054 3.3817 4.16848 3.25 4.5 3.25ZM5.25 4.5C5.25 4.40151 5.2306 4.30398 5.19291 4.21299C5.15522 4.12199 5.09997 4.03931 5.03033 3.96967C4.96069 3.90003 4.87801 3.84478 4.78701 3.80709C4.69602 3.7694 4.59849 3.75 4.5 3.75C4.40151 3.75 4.30398 3.7694 4.21299 3.80709C4.12199 3.84478 4.03931 3.90003 3.96967 3.96967C3.90003 4.03931 3.84478 4.12199 3.80709 4.21299C3.7694 4.30398 3.75 4.40151 3.75 4.5C3.75 4.59849 3.7694 4.69602 3.80709 4.78701C3.84478 4.87801 3.90003 4.96069 3.96967 5.03033C4.03931 5.09997 4.12199 5.15522 4.21299 5.19291C4.30398 5.2306 4.40151 5.25 4.5 5.25C4.59849 5.25 4.69602 5.2306 4.78701 5.19291C4.87801 5.15522 4.96069 5.09997 5.03033 5.03033C5.09997 4.96069 5.15522 4.87801 5.19291 4.78701C5.2306 4.69602 5.25 4.59849 5.25 4.5Z" fill="black"/>
</g>
<defs>
<clipPath id="clip0_23_79">
<rect width="16" height="16" fill="white"/>
</clipPath>
</defs>
</svg>
