<svg width="16" height="16" viewBox="0 0 16 16" fill="none" xmlns="http://www.w3.org/2000/svg">
<path d="M8 0.5C8.98491 0.5 9.96018 0.693993 10.8701 1.0709C11.7801 1.44781 12.6069 2.00026 13.3033 2.6967C13.9997 3.39314 14.5522 4.21993 14.9291 5.12987C15.306 6.03982 15.5 7.01509 15.5 8C15.5 8.98491 15.306 9.96018 14.9291 10.8701C14.5522 11.7801 13.9997 12.6069 13.3033 13.3033C12.6069 13.9997 11.7801 14.5522 10.8701 14.9291C9.96018 15.306 8.98491 15.5 8 15.5C7.01509 15.5 6.03982 15.306 5.12987 14.9291C4.21993 14.5522 3.39314 13.9997 2.6967 13.3033C2.00026 12.6069 1.44781 11.7801 1.0709 10.8701C0.693993 9.96018 0.5 8.98491 0.5 8C0.5 7.01509 0.693993 6.03982 1.0709 5.12987C1.44781 4.21993 2.00026 3.39314 2.6967 2.6967C3.39314 2.00026 4.21993 1.44781 5.12987 1.0709C6.03982 0.693993 7.01509 0.5 8 0.5ZM8 16C10.1217 16 12.1566 15.1571 13.6569 13.6569C15.1571 12.1566 16 10.1217 16 8C16 5.87827 15.1571 3.84344 13.6569 2.34315C12.1566 0.842855 10.1217 0 8 0C5.87827 0 3.84344 0.842855 2.34315 2.34315C0.842855 3.84344 0 5.87827 0 8C0 10.1217 0.842855 12.1566 2.34315 13.6569C3.84344 15.1571 5.87827 16 8 16ZM11.1781 6.17812C11.275 6.08125 11.275 5.92188 11.1781 5.825C11.0813 5.72812 10.9219 5.72812 10.825 5.825L7 9.64688L5.17812 7.825C5.08125 7.72812 4.92188 7.72812 4.825 7.825C4.72812 7.92188 4.72812 8.08125 4.825 8.17813L6.825 10.1781C6.92188 10.275 7.08125 10.275 7.17812 10.1781L11.1781 6.17812Z" fill="#2D2C2A"/>
</svg>
