<svg width="21" height="20" viewBox="0 0 21 20" fill="none" xmlns="http://www.w3.org/2000/svg">
<g clip-path="url(#clip0_23_242)">
<g clip-path="url(#clip1_23_242)">
<g clip-path="url(#clip2_23_242)">
<path d="M3.15991 4.5C3.15991 3.96957 3.37063 3.46086 3.7457 3.08579C4.12077 2.71071 4.62948 2.5 5.15991 2.5C5.69035 2.5 6.19905 2.71071 6.57413 3.08579C6.9492 3.46086 7.15991 3.96957 7.15991 4.5C7.15991 5.03043 6.9492 5.53914 6.57413 5.91421C6.19905 6.28929 5.69035 6.5 5.15991 6.5C4.62948 6.5 4.12077 6.28929 3.7457 5.91421C3.37063 5.53914 3.15991 5.03043 3.15991 4.5ZM7.65991 4.5C7.65991 3.83696 7.39652 3.20107 6.92768 2.73223C6.45884 2.26339 5.82295 2 5.15991 2C4.49687 2 3.86099 2.26339 3.39215 2.73223C2.9233 3.20107 2.65991 3.83696 2.65991 4.5C2.65991 5.16304 2.9233 5.79893 3.39215 6.26777C3.86099 6.73661 4.49687 7 5.15991 7C5.82295 7 6.45884 6.73661 6.92768 6.26777C7.39652 5.79893 7.65991 5.16304 7.65991 4.5ZM10.6599 6.5C11.323 6.5 11.9588 6.76339 12.4277 7.23223C12.8965 7.70107 13.1599 8.33696 13.1599 9C13.1599 9.66304 12.8965 10.2989 12.4277 10.7678C11.9588 11.2366 11.323 11.5 10.6599 11.5C9.99687 11.5 9.36099 11.2366 8.89215 10.7678C8.4233 10.2989 8.15991 9.66304 8.15991 9C8.15991 8.33696 8.4233 7.70107 8.89215 7.23223C9.36099 6.76339 9.99687 6.5 10.6599 6.5ZM10.6599 12C11.0539 12 11.444 11.9224 11.808 11.7716C12.1719 11.6209 12.5027 11.3999 12.7812 11.1213C13.0598 10.8427 13.2808 10.512 13.4316 10.1481C13.5823 9.78407 13.6599 9.39397 13.6599 9C13.6599 8.60603 13.5823 8.21593 13.4316 7.85195C13.2808 7.48797 13.0598 7.15726 12.7812 6.87868C12.5027 6.6001 12.1719 6.37913 11.808 6.22836C11.444 6.0776 11.0539 6 10.6599 6C10.2659 6 9.87584 6.0776 9.51186 6.22836C9.14789 6.37913 8.81717 6.6001 8.53859 6.87868C8.26002 7.15726 8.03904 7.48797 7.88827 7.85195C7.73751 8.21593 7.65991 8.60603 7.65991 9C7.65991 9.39397 7.73751 9.78407 7.88827 10.1481C8.03904 10.512 8.26002 10.8427 8.53859 11.1213C8.81717 11.3999 9.14789 11.6209 9.51186 11.7716C9.87584 11.9224 10.2659 12 10.6599 12ZM8.82554 13.5H12.4943C14.5193 13.5 16.1599 15.1406 16.1599 17.1656C16.1599 17.35 16.0099 17.5 15.8255 17.5H5.49429C5.30991 17.5 5.15991 17.35 5.15991 17.1656C5.15991 15.1406 6.80054 13.5 8.82554 13.5ZM8.82554 13C6.52554 13 4.65991 14.8656 4.65991 17.1656C4.65991 17.625 5.03179 18 5.49429 18H15.8255C16.2849 18 16.6599 17.6281 16.6599 17.1656C16.6599 14.8656 14.7943 13 12.4943 13H8.82554ZM16.6599 2.5C17.1903 2.5 17.6991 2.71071 18.0741 3.08579C18.4492 3.46086 18.6599 3.96957 18.6599 4.5C18.6599 5.03043 18.4492 5.53914 18.0741 5.91421C17.6991 6.28929 17.1903 6.5 16.6599 6.5C16.1295 6.5 15.6208 6.28929 15.2457 5.91421C14.8706 5.53914 14.6599 5.03043 14.6599 4.5C14.6599 3.96957 14.8706 3.46086 15.2457 3.08579C15.6208 2.71071 16.1295 2.5 16.6599 2.5ZM16.6599 7C17.323 7 17.9588 6.73661 18.4277 6.26777C18.8965 5.79893 19.1599 5.16304 19.1599 4.5C19.1599 3.83696 18.8965 3.20107 18.4277 2.73223C17.9588 2.26339 17.323 2 16.6599 2C15.9969 2 15.361 2.26339 14.8921 2.73223C14.4233 3.20107 14.1599 3.83696 14.1599 4.5C14.1599 5.16304 14.4233 5.79893 14.8921 6.26777C15.361 6.73661 15.9969 7 16.6599 7ZM17.4099 8.5C18.9287 8.5 20.1599 9.73125 20.1599 11.25C20.1599 11.3875 20.2724 11.5 20.4099 11.5C20.5474 11.5 20.6599 11.3875 20.6599 11.25C20.6599 9.45625 19.2037 8 17.4099 8H14.5349C14.5755 8.1625 14.6099 8.33125 14.6287 8.5H17.4099ZM6.69116 8.5C6.71304 8.33125 6.74429 8.1625 6.78491 8H3.90991C2.11616 8 0.659912 9.45625 0.659912 11.25C0.659912 11.3875 0.772412 11.5 0.909912 11.5C1.04741 11.5 1.15991 11.3875 1.15991 11.25C1.15991 9.73125 2.39116 8.5 3.90991 8.5H6.69116Z" fill="black"/>
</g>
</g>
</g>
<defs>
<clipPath id="clip0_23_242">
<rect width="20" height="20" fill="white" transform="translate(0.659912)"/>
</clipPath>
<clipPath id="clip1_23_242">
<rect width="20" height="20" fill="white" transform="translate(0.659912)"/>
</clipPath>
<clipPath id="clip2_23_242">
<rect width="20" height="16" fill="white" transform="translate(0.659912 2)"/>
</clipPath>
</defs>
</svg>
