<svg width="21" height="20" viewBox="0 0 21 20" fill="none" xmlns="http://www.w3.org/2000/svg">
<g clip-path="url(#clip0_23_248)">
<path d="M16.1167 10.4375C16.8198 9.42578 17.23 8.19922 17.23 6.875C17.23 3.42188 14.4331 0.625 10.98 0.625C7.52686 0.625 4.72998 3.42188 4.72998 6.875C4.72998 8.19922 5.14014 9.42578 5.84326 10.4375C6.01904 10.6914 6.21436 10.957 6.40967 11.2266C6.89795 11.8984 7.42139 12.6133 7.82764 13.3516C8.1167 13.8789 8.28076 14.4375 8.37451 15H7.73779C7.65186 14.5312 7.50732 14.0742 7.27686 13.6523C6.89014 12.9492 6.40967 12.2891 5.9292 11.6289C5.72607 11.3516 5.52295 11.0742 5.32764 10.793C4.55811 9.68359 4.10498 8.33203 4.10498 6.875C4.10498 3.07812 7.18311 0 10.98 0C14.7769 0 17.855 3.07812 17.855 6.875C17.855 8.33203 17.4019 9.68359 16.6284 10.793C16.4331 11.0742 16.23 11.3516 16.0269 11.6289C15.5464 12.2852 15.0659 12.9453 14.6792 13.6523C14.4487 14.0742 14.3042 14.5312 14.2183 15H13.5854C13.6792 14.4375 13.8433 13.8789 14.1323 13.3516C14.5386 12.6094 15.0581 11.8945 15.5503 11.2266C15.7456 10.957 15.9409 10.6914 16.1167 10.4375ZM10.6675 3.125C8.76904 3.125 7.22998 4.66406 7.22998 6.5625C7.22998 6.73438 7.08936 6.875 6.91748 6.875C6.74561 6.875 6.60498 6.73438 6.60498 6.5625C6.60498 4.32031 8.42529 2.5 10.6675 2.5C10.8394 2.5 10.98 2.64062 10.98 2.8125C10.98 2.98438 10.8394 3.125 10.6675 3.125ZM8.47998 16.875C8.47998 18.2539 9.60107 19.375 10.98 19.375C12.3589 19.375 13.48 18.2539 13.48 16.875H8.47998ZM7.85498 16.875V16.668C7.85498 16.4375 8.04248 16.25 8.27295 16.25H13.687C13.9175 16.25 14.105 16.4375 14.105 16.668V16.875C14.105 18.6016 12.7065 20 10.98 20C9.25342 20 7.85498 18.6016 7.85498 16.875Z" fill="black"/>
</g>
<defs>
<clipPath id="clip0_23_248">
<rect width="20" height="20" fill="white" transform="translate(0.97998)"/>
</clipPath>
</defs>
</svg>
