<svg width="21" height="20" viewBox="0 0 21 20" fill="none" xmlns="http://www.w3.org/2000/svg">
<g clip-path="url(#clip0_23_254)">
<g clip-path="url(#clip1_23_254)">
<g clip-path="url(#clip2_23_254)">
<path d="M6.60495 2.2396C6.66051 2.21877 6.72301 2.21877 6.78204 2.23613L13.914 4.43057L18.8202 2.64585C19.5459 2.38196 20.3098 2.92015 20.3098 3.69099V14.6945C20.3098 15.1632 20.0182 15.5799 19.5772 15.7396L14.0147 17.7604C13.9591 17.7813 13.8966 17.7813 13.8376 17.7639L6.70565 15.5695L1.7994 17.3542C1.07718 17.6181 0.309814 17.0799 0.309814 16.309V5.30557C0.309814 4.83682 0.601481 4.42015 1.04245 4.26043L6.60495 2.2396ZM1.22995 4.78474C1.0112 4.8646 0.86537 5.07293 0.86537 5.30557V16.309C0.86537 16.6945 1.24731 16.9618 1.6119 16.8299L6.42093 15.0833V2.89585L1.22995 4.78474ZM13.6431 17.125V4.9271L6.97648 2.87502V15.0729L13.6431 17.125ZM14.1987 17.1042L19.3897 15.2153C19.6084 15.1354 19.7543 14.9271 19.7543 14.6945V3.69099C19.7543 3.30557 19.3723 3.03821 19.0077 3.17015L14.1987 4.91668V17.1042Z" fill="black"/>
</g>
</g>
</g>
<defs>
<clipPath id="clip0_23_254">
<rect width="20" height="20" fill="white" transform="translate(0.309814)"/>
</clipPath>
<clipPath id="clip1_23_254">
<rect width="20" height="20" fill="white" transform="translate(0.309814)"/>
</clipPath>
<clipPath id="clip2_23_254">
<rect width="20" height="17.7778" fill="white" transform="translate(0.309814 1.11108)"/>
</clipPath>
</defs>
</svg>
